<svg width="800" height="800" viewBox="0 0 800 800" fill="none" xmlns="http://www.w3.org/2000/svg">
<circle cx="401" cy="380" r="366" fill="#3EE480"/>
<path d="M326.968 343.995L378.757 344.458C383.997 343.533 387.851 343.841 390.317 345.382C393.091 346.924 396.636 349.39 400.952 352.781C405.268 356.172 407.426 360.95 407.426 367.115C407.426 370.198 406.809 373.435 405.576 376.826C404.651 380.217 403.264 382.683 401.414 384.224C398.948 386.69 396.328 388.54 393.554 389.773C390.779 390.698 388.005 391.468 385.23 392.085C382.764 392.393 380.606 392.547 378.757 392.547C377.215 392.547 376.291 392.547 375.982 392.547H326.968V446.186C327.893 451.426 327.585 456.821 326.043 462.37C324.502 467.61 322.036 472.388 318.645 476.704C315.254 481.02 310.476 483.178 304.31 483.178C301.228 483.178 297.22 482.715 292.288 481.79C287.356 480.557 284.119 479.016 282.578 477.166C280.111 474.7 278.262 471.618 277.029 467.918C276.104 463.911 275.333 460.058 274.717 456.358C274.409 452.659 274.254 449.577 274.254 447.11C274.254 444.336 274.254 442.795 274.254 442.486L273.792 393.01H234.95C231.559 393.01 228.631 393.164 226.165 393.472C224.007 393.472 221.849 393.318 219.691 393.01C217.842 392.393 215.992 391.622 214.142 390.698C212.293 389.773 210.135 388.231 207.669 386.074C201.195 381.45 197.958 375.747 197.958 368.965C197.958 364.649 199.191 360.487 201.658 356.48C204.432 352.164 208.285 349.236 213.218 347.694C216.3 346.77 218.766 345.999 220.616 345.382C222.774 344.766 224.623 344.303 226.165 343.995C228.014 343.687 229.864 343.533 231.714 343.533C233.871 343.225 236.646 343.07 240.037 343.07L273.792 343.533V307.928C273.484 300.838 273.484 293.594 273.792 286.195C274.1 278.489 276.412 272.015 280.728 266.774C283.194 263.383 286.585 260.763 290.901 258.914C295.217 257.064 299.07 256.139 302.461 256.139C306.777 256.139 310.938 257.681 314.946 260.763C319.261 263.538 322.19 267.391 323.731 272.323C325.889 278.797 326.814 285.425 326.506 292.206C326.506 298.988 326.66 305.924 326.968 313.014V343.995ZM527.151 219.147C529.309 218.531 531.313 218.068 533.162 217.76C535.012 217.143 536.861 216.681 538.711 216.373C540.869 215.756 543.489 215.448 546.572 215.448C549.963 215.14 553.045 215.294 555.82 215.91C558.903 216.219 561.677 217.143 564.143 218.685C566.917 219.918 568.921 221.922 570.154 224.696C571.387 227.779 572.158 231.478 572.466 235.794C573.083 239.801 573.391 243.963 573.391 248.278C573.391 252.594 573.237 256.91 572.929 261.226C572.929 265.233 572.929 268.932 572.929 272.323V508.61C572.929 512.001 572.929 515.546 572.929 519.245C573.237 522.636 573.237 526.181 572.929 529.88C572.62 533.579 571.696 537.124 570.154 540.515C568.613 543.598 566.301 546.218 563.218 548.376C558.903 551.767 553.045 553.462 545.647 553.462C538.557 553.771 532.392 553 527.151 551.15C521.602 549.301 518.211 545.756 516.978 540.515C516.053 535.275 515.591 530.034 515.591 524.794C513.433 484.102 512.354 444.336 512.354 405.494C512.663 366.345 512.817 326.116 512.817 284.808C512.2 286.349 510.042 287.737 506.343 288.97C502.952 290.203 498.945 291.282 494.321 292.206C490.005 293.131 485.843 293.902 481.836 294.518C477.828 295.135 475.208 295.443 473.975 295.443C465.96 296.368 458.562 295.597 451.78 293.131C445.306 290.357 441.607 284.191 440.682 274.635C439.449 264.771 441.607 257.064 447.156 251.515C453.013 245.966 460.411 241.805 469.351 239.03C479.216 235.639 488.772 232.249 498.02 228.858C507.576 225.158 517.287 221.922 527.151 219.147Z" fill="white"/>
</svg>
